<svg width="24" height="24" viewBox="0 0 24 24" fill="none" xmlns="http://www.w3.org/2000/svg">
<path d="M17.9946 13.996L21.9935 17.9948L17.9946 21.9937" stroke="white" stroke-width="1.99942" stroke-linecap="round" stroke-linejoin="round"/>
<path d="M17.9946 1.99939L21.9935 5.99823L17.9946 9.99708" stroke="white" stroke-width="1.99942" stroke-linecap="round" stroke-linejoin="round"/>
<path d="M1.99951 17.9948H3.97194C4.61825 17.9992 5.25599 17.8469 5.83055 17.5509C6.40511 17.2549 6.89937 16.8241 7.27099 16.2953L12.7234 7.69777C13.095 7.16897 13.5893 6.73813 14.1638 6.44214C14.7384 6.14616 15.3762 5.99385 16.0225 5.99826H21.9937" stroke="white" stroke-width="1.99942" stroke-linecap="round" stroke-linejoin="round"/>
<path d="M1.99951 5.99827H3.97094C4.71618 5.99308 5.44805 6.19626 6.08397 6.58487C6.71989 6.97349 7.23455 7.53208 7.5699 8.19763" stroke="white" stroke-width="1.99942" stroke-linecap="round" stroke-linejoin="round"/>
<path d="M21.9936 17.9948H15.9543C15.2991 17.9881 14.6555 17.8205 14.0803 17.5068C13.505 17.193 13.0157 16.7426 12.6553 16.1954L12.2964 15.7455" stroke="white" stroke-width="1.99942" stroke-linecap="round" stroke-linejoin="round"/>
</svg>
