<svg width="24" height="24" viewBox="0 0 24 24" fill="none" xmlns="http://www.w3.org/2000/svg">
<path d="M17.9948 13.996L21.9936 17.9948L17.9948 21.9937" stroke="white" stroke-width="1.99942" stroke-linecap="round" stroke-linejoin="round"/>
<path d="M17.9948 1.99939L21.9936 5.99823L17.9948 9.99708" stroke="white" stroke-width="1.99942" stroke-linecap="round" stroke-linejoin="round"/>
<path d="M1.99939 17.9948H3.97182C4.61812 17.9992 5.25587 17.8469 5.83043 17.5509C6.40499 17.2549 6.89925 16.8241 7.27086 16.2953L12.7233 7.69777C13.0949 7.16897 13.5892 6.73813 14.1637 6.44214C14.7383 6.14616 15.376 5.99385 16.0223 5.99826H21.9936" stroke="white" stroke-width="1.99942" stroke-linecap="round" stroke-linejoin="round"/>
<path d="M1.99939 5.99827H3.97082C4.71606 5.99308 5.44793 6.19626 6.08384 6.58487C6.71976 6.97349 7.23443 7.53208 7.56978 8.19763" stroke="white" stroke-width="1.99942" stroke-linecap="round" stroke-linejoin="round"/>
<path d="M21.9936 17.9948H15.9543C15.2991 17.9881 14.6555 17.8205 14.0803 17.5068C13.505 17.193 13.0157 16.7426 12.6553 16.1954L12.2964 15.7455" stroke="white" stroke-width="1.99942" stroke-linecap="round" stroke-linejoin="round"/>
</svg>
