<svg width="28" height="28" viewBox="0 0 28 28" fill="none" xmlns="http://www.w3.org/2000/svg">
<path d="M11.6667 17.1033V19.0003C11.6623 19.4001 11.5553 19.792 11.3559 20.1384C11.1565 20.4849 10.8715 20.7744 10.5281 20.979C9.79908 21.5189 9.20606 22.2215 8.79615 23.0308C8.38623 23.8401 8.17073 24.7338 8.16675 25.641" stroke="white" stroke-width="1.6666" stroke-linecap="round" stroke-linejoin="round"/>
<path d="M16.3333 17.1033V19.0003C16.3377 19.4001 16.4447 19.792 16.6441 20.1384C16.8435 20.4849 17.1285 20.7744 17.4719 20.979C18.2009 21.5189 18.7939 22.2215 19.2039 23.0308C19.6138 23.8401 19.8293 24.7338 19.8333 25.641" stroke="white" stroke-width="1.6666" stroke-linecap="round" stroke-linejoin="round"/>
<path d="M21 10.5H22.75C23.5235 10.5 24.2654 10.1927 24.8124 9.64572C25.3594 9.09874 25.6667 8.35687 25.6667 7.58332C25.6667 6.80977 25.3594 6.06791 24.8124 5.52093C24.2654 4.97395 23.5235 4.66666 22.75 4.66666H21" stroke="white" stroke-width="1.6666" stroke-linecap="round" stroke-linejoin="round"/>
<path d="M4.66675 25.6667H23.3334" stroke="white" stroke-width="1.6666" stroke-linecap="round" stroke-linejoin="round"/>
<path d="M7 10.5C7 12.3565 7.7375 14.137 9.05025 15.4498C10.363 16.7625 12.1435 17.5 14 17.5C15.8565 17.5 17.637 16.7625 18.9497 15.4498C20.2625 14.137 21 12.3565 21 10.5V3.50001C21 3.19059 20.8771 2.89384 20.6583 2.67505C20.4395 2.45626 20.1428 2.33334 19.8333 2.33334H8.16667C7.85725 2.33334 7.5605 2.45626 7.34171 2.67505C7.12292 2.89384 7 3.19059 7 3.50001V10.5Z" stroke="white" stroke-width="1.6666" stroke-linecap="round" stroke-linejoin="round"/>
<path d="M6.99992 10.5H5.24992C4.47637 10.5 3.73451 10.1927 3.18752 9.64572C2.64054 9.09874 2.33325 8.35687 2.33325 7.58332C2.33325 6.80977 2.64054 6.06791 3.18752 5.52093C3.73451 4.97395 4.47637 4.66666 5.24992 4.66666H6.99992" stroke="white" stroke-width="1.6666" stroke-linecap="round" stroke-linejoin="round"/>
</svg>
