<svg width="40" height="40" viewBox="0 0 40 40" fill="none" xmlns="http://www.w3.org/2000/svg">
<path d="M10.0002 14.9998H7.50016C6.39509 14.9998 5.33529 14.5609 4.55388 13.7794C3.77248 12.998 3.3335 11.9382 3.3335 10.8332C3.3335 9.7281 3.77248 8.66829 4.55388 7.88689C5.33529 7.10549 6.39509 6.6665 7.50016 6.6665H10.0002" stroke="white" stroke-width="3.33333" stroke-linecap="round" stroke-linejoin="round"/>
<path d="M30 14.9998H32.5C33.6051 14.9998 34.6649 14.5609 35.4463 13.7794C36.2277 12.998 36.6667 11.9382 36.6667 10.8332C36.6667 9.7281 36.2277 8.66829 35.4463 7.88689C34.6649 7.10549 33.6051 6.6665 32.5 6.6665H30" stroke="white" stroke-width="3.33333" stroke-linecap="round" stroke-linejoin="round"/>
<path d="M6.6665 36.6665H33.3332" stroke="white" stroke-width="3.33333" stroke-linecap="round" stroke-linejoin="round"/>
<path d="M16.6665 24.4331V28.3331C16.6665 29.2498 15.8832 29.9664 15.0498 30.3498C13.0832 31.2498 11.6665 33.7331 11.6665 36.6664" stroke="white" stroke-width="3.33333" stroke-linecap="round" stroke-linejoin="round"/>
<path d="M23.3335 24.4331V28.3331C23.3335 29.2498 24.1168 29.9664 24.9502 30.3498C26.9168 31.2498 28.3335 33.7331 28.3335 36.6664" stroke="white" stroke-width="3.33333" stroke-linecap="round" stroke-linejoin="round"/>
<path d="M30 3.3335H10V15.0002C10 17.6523 11.0536 20.1959 12.9289 22.0712C14.8043 23.9466 17.3478 25.0002 20 25.0002C22.6522 25.0002 25.1957 23.9466 27.0711 22.0712C28.9464 20.1959 30 17.6523 30 15.0002V3.3335Z" stroke="white" stroke-width="3.33333" stroke-linecap="round" stroke-linejoin="round"/>
</svg>
