<svg width="16" height="16" viewBox="0 0 16 16" fill="none" xmlns="http://www.w3.org/2000/svg">
<g clip-path="url(#clip0_1019_6328)">
<path d="M7.99902 4.66602V13.9983" stroke="white" stroke-width="1.33319" stroke-linecap="round" stroke-linejoin="round"/>
<path d="M1.9996 11.9989C1.82281 11.9989 1.65326 11.9287 1.52825 11.8037C1.40324 11.6787 1.33301 11.5091 1.33301 11.3323V2.66659C1.33301 2.4898 1.40324 2.32025 1.52825 2.19524C1.65326 2.07023 1.82281 2 1.9996 2H5.33257C6.03974 2 6.71794 2.28092 7.21799 2.78096C7.71803 3.28101 7.99895 3.95921 7.99895 4.66638C7.99895 3.95921 8.27987 3.28101 8.77991 2.78096C9.27996 2.28092 9.95816 2 10.6653 2H13.9983C14.1751 2 14.3446 2.07023 14.4697 2.19524C14.5947 2.32025 14.6649 2.4898 14.6649 2.66659V11.3323C14.6649 11.5091 14.5947 11.6787 14.4697 11.8037C14.3446 11.9287 14.1751 11.9989 13.9983 11.9989H9.99873C9.46836 11.9989 8.95971 12.2096 8.58467 12.5846C8.20964 12.9597 7.99895 13.4683 7.99895 13.9987C7.99895 13.4683 7.78826 12.9597 7.41323 12.5846C7.0382 12.2096 6.52954 11.9989 5.99917 11.9989H1.9996Z" stroke="white" stroke-width="1.33319" stroke-linecap="round" stroke-linejoin="round"/>
</g>
<defs>
<clipPath id="clip0_1019_6328">
<rect width="15.9983" height="15.9983" fill="white"/>
</clipPath>
</defs>
</svg>
