<svg width="16" height="16" viewBox="0 0 16 16" fill="none" xmlns="http://www.w3.org/2000/svg">
<path d="M2 7.99935C2 9.18591 2.35186 10.3458 3.01107 11.3324C3.67029 12.319 4.60726 13.0879 5.7035 13.542C6.79974 13.9961 8.006 14.1149 9.16976 13.8834C10.3335 13.6519 11.4025 13.0806 12.2415 12.2415C13.0806 11.4025 13.6519 10.3335 13.8834 9.16976C14.1149 8.006 13.9961 6.79974 13.542 5.7035C13.0879 4.60726 12.319 3.67029 11.3324 3.01107C10.3458 2.35186 9.18591 2 7.99935 2C6.32217 2.00631 4.71235 2.66074 3.5065 3.82647L2 5.33297" stroke="#1E3C80" stroke-width="1.33319" stroke-linecap="round" stroke-linejoin="round"/>
<path d="M2 2V5.33297H5.33297" stroke="#1E3C80" stroke-width="1.33319" stroke-linecap="round" stroke-linejoin="round"/>
</svg>
