<svg width="16" height="16" viewBox="0 0 16 16" fill="none" xmlns="http://www.w3.org/2000/svg">
<path d="M2 7.9991C2 9.18566 2.35186 10.3456 3.01107 11.3322C3.67029 12.3188 4.60726 13.0877 5.7035 13.5418C6.79974 13.9959 8.006 14.1147 9.16976 13.8832C10.3335 13.6517 11.4025 13.0803 12.2415 12.2413C13.0806 11.4023 13.6519 10.3333 13.8834 9.16952C14.1149 8.00576 13.9961 6.79949 13.542 5.70325C13.0879 4.60702 12.319 3.67005 11.3324 3.01083C10.3458 2.35161 9.18591 1.99976 7.99935 1.99976C6.32217 2.00607 4.71235 2.6605 3.5065 3.82622L2 5.33273" stroke="#1447E6" stroke-width="1.33319" stroke-linecap="round" stroke-linejoin="round"/>
<path d="M2 1.99976V5.33273H5.33297" stroke="#1447E6" stroke-width="1.33319" stroke-linecap="round" stroke-linejoin="round"/>
</svg>
